<svg xmlns="http://www.w3.org/2000/svg" width="61.053" height="58" viewBox="0 0 61.053 58"><path d="M57.947,15.211H51.293a9.136,9.136,0,0,0-16.24-8.089L33.526,9.166,32,7.091a9.139,9.139,0,0,0-16.24,8.12H9.105a6.058,6.058,0,0,0-6.075,6.105L3,54.895A6.084,6.084,0,0,0,9.105,61H57.947a6.084,6.084,0,0,0,6.105-6.105V21.316A6.084,6.084,0,0,0,57.947,15.211ZM42.684,9.105a3.053,3.053,0,1,1-3.053,3.053A3.062,3.062,0,0,1,42.684,9.105Zm-18.316,0a3.053,3.053,0,1,1-3.053,3.053A3.062,3.062,0,0,1,24.368,9.105ZM57.947,54.895H9.105V48.789H57.947Zm0-15.263H9.105V21.316H24.613l-6.349,8.639,4.945,3.572,7.265-9.891,3.053-4.152,3.053,4.152,7.265,9.891,4.945-3.572L42.44,21.316H57.947Z" transform="translate(-3 -3)" fill="#1e1e1e"/></svg>